<?xml version="1.0" encoding="utf-8"?>
<!-- Generator: Adobe Illustrator 16.2.1, SVG Export Plug-In . SVG Version: 6.00 Build 0)  -->
<!DOCTYPE svg PUBLIC "-//W3C//DTD SVG 1.1//EN" "http://www.w3.org/Graphics/SVG/1.1/DTD/svg11.dtd">
<svg version="1.1" id="logolayer" xmlns="http://www.w3.org/2000/svg" xmlns:xlink="http://www.w3.org/1999/xlink" x="0px" y="0px"
	 width="464.331px" height="136.209px" viewBox="0 0 464.331 136.209" enable-background="new 0 0 464.331 136.209"
	 xml:space="preserve">
<path id="logo" fill="#FFFFFF" d="M452.089,107.552c1.805-9.128,4.564-21.44,6.369-30.781l1.486-8.279
	c4.564-23.457-15.178-23.882-26.643-11.251l1.594-7.749h-14.223l-8.012,39.661c-4.731,7.654-12.765,12.383-10.812,2.265
	c2.441-12.206,4.67-21.653,7.961-37.892l0.85-4.034h-26.854c-19,0.637-27.385,17.726-28.871,34.814
	c-0.337,3.877,0.152,7.153,1.227,9.849c-4.41,2.401-8.548,2.021-7.523-2.737c1.592-8.598,1.699-8.916,2.547-13.48l1.699-9.446
	c5.094-24.943-14.01-23.882-25.156-8.704c-0.955-14.541-16.238-13.268-24.73-3.078l1.381-7.218H289.73l-1.022,5.112
	c-2.61,1.025-4.672,1.857-6.642,2.729c-2.762-4.976-8.579-7.758-16.113-8.16c-5.52-0.53-11.039,0.106-16.027,2.335
	c-5.054,1.116-10.026,4.13-14.708,6.822c-0.017-0.044-0.029-0.092-0.047-0.135c-2.547-5.519-8.597-8.597-16.558-9.022
	c-5.52-0.53-11.039,0.106-16.027,2.335c-9.234,3.715-10.932,11.569-6.475,17.619c1.486,2.547,4.67,5.413,7.43,7.005
	c2.653,2.017,4.776,2.866,8.491,4.988c2.972,2.229,6.793,5.307,5.201,8.916c-1.38,3.184-4.14,5.307-7.536,6.793
	c-5.944,2.229-13.055,1.167-14.435-2.335c-1.38-2.866,1.592-6.369,8.173-8.385l-7.854-6.687c-6.368,2.76-9.552,8.598-8.703,13.692
	c0.129,0.701,0.337,1.361,0.604,1.988c-4.085,3.681-7.787,3.09-6.479-3.686c2.441-12.206,4.67-21.653,7.96-37.892l0.849-4.034
	h-26.854c-10.252,0.344-17.408,5.482-22.063,12.821c-1.668,0.742-2.187-1.408-0.581-9.318c-13.905-8.279-22.927-3.078-29.613,8.066
	l2.229-11.569h-9.634h-4.907c-5.25,2.586-9.323,6.37-12.632,10.67c-0.369-0.938-0.783-1.857-1.259-2.747
	c-3.274-6.137-9.138-11.047-17.049-13.093c10.366-6.002,18.004-18.686,12.549-30.143C66.767-14.735-6.611,1.904,0.481,51.96
	l18.413-8.456C11.666,30.82,21.486,15.135,35.397,9.815l-18.549,92.746c2.864,0,5.592,0,8.319,0c4.501,0,9.411,0,14.185,0
	c12.852,0.093,25.574-0.587,34.884-6.613l0,0c0,0,0.001,0,0.001-0.001c4.226-2.735,7.748-6.571,10.26-11.936
	c1.453-3,2.394-6.144,2.848-9.3c2.148-6.818,4.246-13.811,9.998-20.047l-9.675,47.898h14.965l5.944-30.674
	c5.413-8.81,13.268-16.982,21.865-10.72c2.55,3,5.134,5.222,8.252,5.151c-2.584,5.456-4.062,11.72-4.607,17.987
	c-1.91,21.971,22.29,25.049,33.541,8.279c0.942,12.465,13.876,13.99,24.317,7.488c12.778,7.979,44.183,1.121,39.616-17.147
	c-0.956-2.654-2.654-4.67-4.989-6.581c-2.653-1.804-5.838-3.715-8.597-5.095c-3.185-1.698-5.838-3.502-7.642-5.095
	c-1.38-1.486-1.698-1.804-2.017-4.139c-0.425-2.123,1.379-5.201,4.67-6.581c1.911-1.486,5.095-2.229,7.43-1.805
	c6.369,0.531,4.564,6.369,2.972,9.553l11.994,4.246c2.484-4.365,4.442-7.903,7.112-10.038c-2.177,3.685-1.764,8.044,0.956,11.736
	c1.486,2.547,4.67,5.413,7.43,7.005c2.653,2.017,4.776,2.866,8.491,4.988c2.972,2.229,6.793,5.307,5.201,8.916
	c-1.38,3.184-4.14,5.307-7.536,6.793c-5.944,2.229-13.055,1.167-14.435-2.335c-1.379-2.866,1.592-6.369,8.173-8.385l-7.854-6.687
	c-6.369,2.76-9.553,8.598-8.704,13.692c3.184,17.301,50.204,11.888,44.685-10.189c-0.956-2.654-2.654-4.67-4.989-6.581
	c-2.653-1.804-5.838-3.715-8.597-5.095c-3.185-1.698-5.838-3.502-7.642-5.095c-1.38-1.486-1.698-1.804-2.017-4.139
	c-0.424-2.123,1.38-5.201,4.67-6.581c1.911-1.486,5.095-2.229,7.43-1.805c6.369,0.531,4.564,6.369,2.972,9.553l11.994,4.246
	c0.139-0.539,0.246-1.079,0.339-1.62c0.629-2.203,2.073-4.758,4.878-7.365l-8.823,44.117h14.646l7.324-36.512
	c0.107-0.212,0.107-0.318,0.213-0.424c4.352-8.916,15.072-15.603,13.055-4.352c-2.123,11.569-4.352,24.731-7.324,41.289h14.012
	c0.531-2.76,5.412-30.781,6.049-34.071c0.107-0.425,0.213-0.637,0.318-0.849c3.822-9.765,15.285-18.787,12.738-6.687
	c-1.699,9.234-3.396,17.726-4.883,25.898c-3.284,17.435,11.799,20.284,23.368,11.463c6.955,8.124,21.75,6.333,29.843-5.731
	c1.023,13.546,13.355,13.233,22.645,4.197l-1.168,5.78h14.754l6.686-35.451c3.822-9.659,18.045-18.362,15.709-6.156
	c-2.76,14.223-6.262,31.63-9.234,45.958c-19.529,0.212-33.115,2.123-50.947,8.173l8.598,9.553
	c14.859-6.581,24.838-9.022,41.182-9.765c-0.955,5.519-1.273,10.083-0.742,12.524c0.742,2.229,1.592,4.139,2.865,5.413
	c1.273,1.273,2.549,2.229,4.352,2.76c1.594,0.318,3.186,0.637,4.883,0.637c1.381,0,3.078-0.318,4.564-0.743
	c1.486-0.637,2.973-1.38,4.564-2.335c1.273-1.167,2.547-2.335,3.715-3.715c1.061-1.486,2.016-2.972,2.547-4.776
	C466.738,114.345,460.369,109.25,452.089,107.552z M54.492,7.224c6.819,1.091,12.274,5.319,12.274,14.048
	c0.273,12.684-7.91,19.64-19.23,21.004L54.492,7.224z M37.443,93.286l8.319-42.826C78.497,47.732,75.36,93.832,37.443,93.286z
	 M167.947,85.581c-14.647,19.742-21.653,9.765-17.619-9.446c3.715-17.195,16.239-28.658,22.714-16.876L167.947,85.581z
	 M388.794,85.581c-14.646,19.742-21.652,9.765-17.619-9.446c3.715-17.195,16.24-28.658,22.713-16.876L388.794,85.581z
	 M458.458,123.154c-0.424,0.849-0.85,1.592-1.91,2.441c-0.955,0.743-2.123,1.062-3.186,1.062c-0.955,0-1.91-0.531-2.652-1.698
	c-1.168-1.804-0.637-6.793-0.105-9.659C454.425,115.406,460.687,118.484,458.458,123.154z"/>
</svg>
